<?xml version="1.0" encoding="UTF-8"?>
<!DOCTYPE svg PUBLIC "-//W3C//DTD SVG 1.1//EN" "http://www.w3.org/Graphics/SVG/1.1/DTD/svg11.dtd">
<svg xmlns="http://www.w3.org/2000/svg" version="1.1" width="192px" height="192px" style="shape-rendering:geometricPrecision; text-rendering:geometricPrecision; image-rendering:optimizeQuality; fill-rule:evenodd; clip-rule:evenodd" xmlns:xlink="http://www.w3.org/1999/xlink">
<g><path style="opacity:0.998" fill="#5500aa" d="M 10.5,-0.5 C 67.1667,-0.5 123.833,-0.5 180.5,-0.5C 184.489,2.82277 188.156,6.48943 191.5,10.5C 191.5,67.1667 191.5,123.833 191.5,180.5C 188.167,184.5 184.5,188.167 180.5,191.5C 123.833,191.5 67.1667,191.5 10.5,191.5C 6.5,188.167 2.83333,184.5 -0.5,180.5C -0.5,123.833 -0.5,67.1667 -0.5,10.5C 2.8439,6.48943 6.51056,2.82277 10.5,-0.5 Z"/></g>
<g><path style="opacity:1" fill="#f8a3db" d="M 36.5,64.5 C 46.2117,63.7091 50.0451,68.0424 48,77.5C 43.5836,82.8754 37.917,85.5421 31,85.5C 30.3333,90.8333 30.3333,96.1667 31,101.5C 36.9083,104.888 41.9083,103.888 46,98.5C 49.3453,85.6543 57.6786,79.6543 71,80.5C 73.6137,81.4449 75.1137,83.2783 75.5,86C 73.3478,91.6458 73.0144,97.4791 74.5,103.5C 76.9371,102.197 79.1038,100.53 81,98.5C 83.4248,86.0408 90.7581,80.7075 103,82.5C 108.789,78.8383 111.622,80.505 111.5,87.5C 110.153,93.8702 108.986,100.204 108,106.5C 114.502,102.156 117.835,96.1558 118,88.5C 119.057,85.0214 121.057,82.3547 124,80.5C 125.626,81.2887 127.126,82.2887 128.5,83.5C 132.938,80.9438 137.438,80.9438 142,83.5C 142.985,85.3659 143.485,87.3659 143.5,89.5C 142.091,93.696 141.424,98.0293 141.5,102.5C 144.263,102.256 146.429,100.923 148,98.5C 150.842,85.6618 158.842,79.6618 172,80.5C 173.982,80.9903 175.649,81.9903 177,83.5C 175.663,87.5926 174.829,91.9259 174.5,96.5C 174.532,98.7588 174.866,100.925 175.5,103C 178.606,101.935 181.273,99.9349 183.5,97C 184.448,96.5172 185.448,96.3505 186.5,96.5C 184.955,103.881 180.455,108.547 173,110.5C 170.679,109.513 169.013,107.846 168,105.5C 161.31,111.975 154.81,111.975 148.5,105.5C 136.148,113.673 131.315,110.34 134,95.5C 136.877,87.3661 134.877,85.6995 128,90.5C 126.725,92.7173 125.725,95.0506 125,97.5C 124.723,100.959 125.057,104.293 126,107.5C 123.695,109.93 120.862,110.93 117.5,110.5C 117.799,108.396 117.466,106.396 116.5,104.5C 113.1,109.068 108.934,112.735 104,115.5C 101.743,125.252 95.91,128.419 86.5,125C 80.5073,119.301 81.5073,115.301 89.5,113C 92.1667,112.667 94.8333,112.333 97.5,112C 98.74,108.386 97.74,107.719 94.5,110C 89.1849,111.343 84.8516,109.843 81.5,105.5C 77.9562,108.448 73.9562,109.948 69.5,110C 68.2283,108.693 67.2283,107.193 66.5,105.5C 59.759,112.089 53.0923,112.089 46.5,105.5C 40.482,111.206 33.982,111.873 27,107.5C 24.0059,109.611 20.6725,110.944 17,111.5C 10.8509,110.306 8.85093,106.639 11,100.5C 14.2432,98.7375 17.7432,98.0708 21.5,98.5C 21.3374,94.2929 21.6707,90.1263 22.5,86C 21.3162,83.3438 19.9829,80.8438 18.5,78.5C 20.5988,79.2309 22.5988,79.2309 24.5,78.5C 26.7698,72.2387 30.7698,67.572 36.5,64.5 Z"/></g>
<g><path style="opacity:1" fill="#6614ae" d="M 36.5,70.5 C 43.1546,70.5971 44.1546,73.0971 39.5,78C 37.26,78.977 34.9267,79.477 32.5,79.5C 33.0231,76.122 34.3565,73.122 36.5,70.5 Z"/></g>
<g><path style="opacity:1" fill="#610fad" d="M 64.5,85.5 C 65.675,85.281 66.675,85.6143 67.5,86.5C 66.7382,90.1111 66.2382,93.7778 66,97.5C 64.9868,101.18 62.6534,103.513 59,104.5C 57.7387,104.241 56.7387,103.574 56,102.5C 54.6037,94.6256 57.4371,88.9589 64.5,85.5 Z"/></g>
<g><path style="opacity:1" fill="#5e0bac" d="M 100.5,85.5 C 101.5,85.5 102.5,85.5 103.5,85.5C 102.581,91.7589 100.581,97.5922 97.5,103C 95.1047,105.145 92.938,104.978 91,102.5C 90.3333,99.8333 90.3333,97.1667 91,94.5C 93.4057,90.5915 96.5724,87.5915 100.5,85.5 Z"/></g>
<g><path style="opacity:1" fill="#5e0cac" d="M 166.5,85.5 C 167.586,85.62 168.253,86.2867 168.5,87.5C 167.992,91.923 167.159,96.2563 166,100.5C 163.79,103.29 160.956,104.123 157.5,103C 155.801,94.8995 158.801,89.0662 166.5,85.5 Z"/></g>
<g><path style="opacity:1" fill="#7b29b4" d="M 16.5,102.5 C 17.8333,102.5 19.1667,102.5 20.5,102.5C 20.1144,106.738 18.4477,107.404 15.5,104.5C 15.8627,103.817 16.1961,103.15 16.5,102.5 Z"/></g>
<g><path style="opacity:1" fill="#6615af" d="M 88.5,117.5 C 90.924,117.192 93.2573,117.526 95.5,118.5C 93.9292,121.093 91.5959,122.093 88.5,121.5C 88.5,120.167 88.5,118.833 88.5,117.5 Z"/></g>
</svg>
